<svg width="722" height="395" viewBox="0 0 722 395" fill="none" xmlns="http://www.w3.org/2000/svg">
<g filter="url(#filter0_i_513_725)">
<path d="M482.72 377.896L68.4985 376.149C69.4145 295.031 86.7126 172.861 153.608 148.656C232.283 120.187 318.621 125.197 380.083 54.0312C449.279 -26.0917 642.877 -26.1796 642.877 115.801C642.877 246.076 668.989 251.528 612.762 337.213C589.37 372.859 520.278 379.292 482.72 377.896Z" fill="url(#paint0_linear_513_725)"/>
<path d="M77.5454 378.12C77.5454 378.12 78.705 223.483 156.285 199.249C233.866 175.017 322.854 178.894 386.432 115.345C450.009 51.7968 633.896 48.6548 633.896 162.322C633.896 275.987 662.559 283.632 605.611 348.022C576.432 381.013 482.887 379.597 482.887 379.597L77.5454 378.12Z" fill="url(#paint1_linear_513_725)"/>
<path d="M481.917 378.304C498.092 320.253 501.544 262.202 492.265 204.151C487.688 175.517 465.47 152.898 436.886 147.941C377.273 137.604 342.084 135.525 264.882 143.919C244.099 217.964 188.769 304.258 209.401 378.303H481.917V378.304Z" fill="#96AAED"/>
<path d="M492.266 204.151C487.689 175.517 465.471 152.898 436.887 147.941C377.274 137.604 342.085 135.525 264.883 143.919C245.254 213.852 194.809 294.712 206.649 365.859C355.179 390.599 446.737 288.78 493.458 212.118C493.087 209.463 492.69 206.807 492.266 204.151Z" fill="#D5EAF9"/>
<path d="M386.489 77.9845H272.986V152.707H386.489V77.9845Z" fill="#1D6294"/>
<path d="M386.488 77.9845H319.98V152.707H386.488V77.9845Z" fill="#96AAED"/>
<path d="M365.702 378.12C373.877 325.839 376.401 273.558 373.276 221.275C370.399 173.181 329.393 136.017 280.914 137.349C280.392 137.363 279.871 137.38 279.349 137.398C238.262 138.804 204.952 171.142 201.989 211.877C197.957 267.291 200.275 322.706 208.94 378.12L365.702 378.12Z" fill="#8C8DC6"/>
<path d="M354.569 378.304C362.494 327.304 364.942 276.304 361.911 225.303C359.124 178.388 319.365 142.133 272.364 143.434C271.858 143.448 271.352 143.464 270.847 143.481C231.011 144.852 198.716 176.399 195.843 216.136C191.934 270.191 194.181 324.248 202.582 378.303H354.569V378.304Z" fill="#B4BBF3"/>
<path d="M274.108 371.488C305.642 371.488 331.205 328.623 331.205 275.748C331.205 222.872 305.642 180.007 274.108 180.007C242.574 180.007 217.011 222.872 217.011 275.748C217.011 328.623 242.574 371.488 274.108 371.488Z" fill="#2775A1"/>
<path d="M270.676 378.07C215.742 373.778 190.732 267.012 227.951 204.602C253.026 162.553 295.474 163.027 320.267 204.602C357.478 266.997 332.483 373.778 277.541 378.07H294.756C341.612 356.042 358.764 260.388 324.124 202.304C297.194 157.146 250.521 157.991 224.094 202.304C189.507 260.303 206.542 356.032 253.443 378.07H270.676Z" fill="#4256E1"/>
<path d="M272.986 358.723C299.932 358.723 321.777 321.574 321.777 275.748C321.777 229.922 299.932 192.773 272.986 192.773C246.04 192.773 224.196 229.922 224.196 275.748C224.196 321.574 246.04 358.723 272.986 358.723Z" fill="#1D6294"/>
<path d="M251.718 233.966C278.665 233.966 300.508 271.115 300.508 316.94C300.508 327.931 299.251 338.422 296.97 348.021C311.78 333.777 321.776 306.748 321.776 275.748C321.776 229.922 299.932 192.773 272.985 192.773C252.502 192.773 234.967 214.24 227.734 244.666C234.817 237.854 243 233.966 251.718 233.966Z" fill="#164A6F"/>
<path d="M224.667 287.32L321.611 282.644C321.654 281.748 321.689 280.848 321.716 279.944L224.474 284.634C224.529 285.533 224.593 286.429 224.667 287.32Z" fill="#32A4EA"/>
<path d="M291.694 378.12H47.4433L35.7695 313.646H306.062L291.694 378.12Z" fill="#164A6F"/>
<path d="M292.592 378.12H102.862L93.6895 313.646H306.062L292.592 378.12Z" fill="#F1F9F4"/>
<path d="M102.861 378.12H292.592L306.062 313.645H265.495C218.922 334.105 150.854 361.923 102.116 372.886L102.861 378.12Z" fill="#A5C0D4"/>
<path d="M312.572 310.354H0V320.228H312.572V310.354Z" fill="#8FBED1"/>
<path d="M65.6962 308.91H196.468L197.941 289.186C197.941 289.186 98.683 299.49 76.8882 295.957C55.0935 292.424 62.7512 278.367 58.1118 278.367C55.7206 278.367 53.9339 280.565 54.4249 282.905L59.8795 308.91H65.6962V308.91Z" fill="#25265D"/>
<path d="M294.921 292.997C294.921 292.997 278.99 292.753 273.14 291.617C270.876 291.178 273.003 292.349 272.172 294.34C271.557 295.809 271.195 297.752 271.643 300.187C272.807 306.518 279.674 306.733 279.674 306.733L300.621 304.598L294.921 292.997Z" fill="#FC7575"/>
<path d="M300.621 304.598L294.922 292.997C294.922 292.997 290.681 292.943 286.041 292.646C285.897 295.674 287.554 299.476 292.552 303.514C293.295 304.114 294.031 304.673 294.76 305.195L300.621 304.598Z" fill="#FD5E5A"/>
<path d="M317.153 311.026C320.993 309.63 326.347 296.968 324.368 293.748C324.368 293.748 321.109 289.778 315.639 288.061C310.168 286.344 306.212 284.842 306.212 284.842L305.048 286.665C305.048 286.665 303.538 286.379 301.632 286.159C301.38 288.064 301.186 291.018 301.952 293.177C301.952 293.177 299.868 290.653 299.909 285.995C297.948 285.851 295.918 285.861 294.805 286.344C290.847 288.061 287.646 295.305 296.55 303.514C305.455 311.723 313.313 312.421 317.153 311.026Z" fill="#FC7575"/>
<path d="M322.394 310.81C321.807 313.924 315.059 313.604 315.059 313.604C315.059 313.604 313.657 315.423 308.775 314.137C303.885 312.85 296.322 305.275 293.991 305.275C293.991 305.275 297.015 303.409 301.79 304.91C306.558 306.409 309.354 306.409 309.354 304.803C309.354 303.188 315.759 306.089 315.759 306.089C315.759 306.089 319.011 302.443 317.618 297.181C316.224 291.921 318.371 290.154 319.484 291.174C319.484 291.174 319.362 286.56 323.438 284.84C325.097 284.14 322.972 307.696 322.394 310.81Z" fill="#0B1742"/>
<path d="M306.197 303.768C306.197 303.768 310.212 304.291 310.212 305.458C310.212 306.625 309.775 307.712 307.505 307.43C305.236 307.148 302.705 305.941 303.753 304.412C304.8 302.883 306.197 303.768 306.197 303.768Z" fill="#FC7575"/>
<path d="M323.404 314.699C323.82 314.568 324.262 314.235 324.452 313.827C325.066 312.495 323.743 310.717 322.827 309.545L323.084 309.347C323.968 310.136 324.851 310.972 325.415 312.144C326.204 313.867 325.4 315.405 323.902 316.057L323.404 314.699Z" fill="#0B1742"/>
<path d="M312.152 292.814C311.164 292.814 310.362 292.412 310.362 291.915C310.362 291.419 311.164 291.016 312.152 291.016C313.14 291.016 313.941 291.419 313.941 291.915C313.941 292.412 313.14 292.814 312.152 292.814Z" fill="#2846A6"/>
<path d="M315.039 295.048C316.119 293.404 315.724 291.092 315.72 291.07L316.408 290.964C316.428 291.068 316.853 293.53 315.636 295.382L315.039 295.048Z" fill="#2846A6"/>
<path d="M307.817 304.54C307.817 304.54 309.178 305.22 308.984 305.829C308.79 306.438 306.055 306.577 304.904 305.494C303.753 304.412 305.64 303.501 307.817 304.54Z" fill="#FD5E5A"/>
<path d="M191.095 280.582V310.021H290.646C290.646 310.021 289.468 290.591 265.905 280.582C242.343 270.573 191.095 280.582 191.095 280.582Z" fill="#F7931E"/>
<path d="M191.094 310.021V284.114C191.094 284.114 97.6652 298.011 74.9014 298.319C68.7353 298.402 64.4177 298.94 62.0155 296.847C55.8177 291.446 56.0809 279.477 52.7378 279.477C50.3778 279.477 48.6418 281.689 49.2042 283.981L55.6749 310.354L191.094 310.021Z" fill="#2775A1"/>
<path d="M195.88 305.752C187.044 307.298 179.755 305.752 174.233 305.752C168.71 305.752 160.979 311.052 160.979 311.052H240.16C239.978 306.94 239.644 302.827 239.486 298.715C219.921 301.603 200.246 304.989 195.88 305.752Z" fill="#FC7575"/>
<path d="M282.694 294.75C279.452 293.316 259.527 295.755 239.486 298.715C239.644 302.827 239.979 306.94 240.16 311.052H290.646C290.646 311.052 289.1 297.583 282.694 294.75Z" fill="#FBB03B"/>
<path d="M312.573 310.354H55.6753V320.228H312.573V310.354Z" fill="#D5EAF9"/>
<path d="M466.851 159.075L466.852 159.077L466.851 159.075Z" fill="#757597"/>
<path d="M466.851 159.075C466.837 159.064 466.838 159.064 466.851 159.075V159.075Z" fill="#757597"/>
<path d="M498.611 247.792C496.048 206.562 493.849 185.325 474.709 165.876C474.623 165.795 471.058 162.465 470.904 162.321C470.906 162.322 470.907 162.324 470.91 162.326C470.825 162.259 467.091 159.268 466.852 159.077C452.1 148.371 440.659 145.167 386.488 139.518L386.488 142.075C401.715 143.723 417.557 146.187 436.316 149.431C448.297 151.751 454.936 155.26 463.488 160.822C468.142 164.089 472.356 168.373 472.266 168.288C479.484 175.755 484.56 184.367 487.148 191.76C492.896 206.293 505.445 284.972 480.927 377.025C480.835 377.026 363.547 378.213 354.568 378.304C499.337 379.765 257.818 377.601 482.887 379.596C485.043 369.574 501.304 324.05 498.611 247.792Z" fill="#757597"/>
<path d="M470.902 162.32C470.898 162.314 470.898 162.314 470.902 162.32V162.32Z" fill="#757597"/>
<path d="M413.67 270.041H343.527V283.954H413.67V270.041Z" fill="#164A6F"/>
<path d="M413.67 283.954H347.952V304.598H413.67V283.954Z" fill="#164A6F"/>
<path d="M403.774 270.041H343.527V283.954H403.774V270.041Z" fill="#C3C9F5"/>
<path d="M403.773 283.954H347.327V304.598H403.773V283.954Z" fill="#608FB2"/>
<path d="M349.649 273.632H347.327V280.812H349.649V273.632Z" fill="#CCE5F8"/>
<path d="M380.811 298.913H374.573V290.262C374.573 288.54 375.969 287.144 377.691 287.144H377.692C379.414 287.144 380.81 288.54 380.81 290.262L380.811 298.913Z" fill="#104E3D"/>
<path d="M393.053 286.31H391.22V289.451H393.053V286.31Z" fill="#104E3D"/>
<path d="M345.151 271.665H403.774V270.041H343.527V283.954H345.151V271.665Z" fill="#F3F4FD"/>
<path d="M324.754 372.385C298.248 371.882 283.331 347.175 286.763 320.114L288.545 320.34C285.196 346.747 299.88 370.597 325.452 370.597C353.354 370.597 357.69 336.652 358.515 311.023L360.309 311.081C359.38 339.987 353.737 372.998 324.754 372.385Z" fill="#353D44"/>
<path d="M301.396 348.238C290.503 339.257 289.775 321.03 289.75 320.258L291.544 320.197C291.55 320.378 292.276 338.398 302.544 346.857C307.103 350.613 312.923 351.958 319.84 350.855C347.127 346.503 332.434 276.581 343.018 269.302C352.853 262.541 412.863 260.168 414.559 272.031C416.05 282.461 414.629 324.841 414.568 326.64L412.772 326.579C412.786 326.14 414.249 282.559 412.781 272.285C411.455 263.025 353.797 264.069 344.036 270.781C340.706 273.071 340.372 284.872 340.019 297.366C339.361 320.677 338.541 349.69 320.122 352.628C313.312 353.715 306.781 352.677 301.396 348.238Z" fill="#353D44"/>
<path d="M366.154 307.563H355.024C353.962 307.563 353.1 306.701 353.1 305.639V293.553C353.1 289.552 356.345 286.31 360.347 286.31H360.832C364.834 286.31 368.078 289.553 368.078 293.553V305.639C368.078 306.701 367.217 307.563 366.154 307.563Z" fill="#6A7781"/>
<path d="M364.1 307.563H354.722C353.826 307.563 353.1 306.836 353.1 305.942V292.413C353.1 289.043 355.834 286.31 359.207 286.31H359.615C362.987 286.31 365.722 289.043 365.722 292.413V305.942C365.722 306.837 364.996 307.563 364.1 307.563Z" fill="#CCE5F8"/>
<path d="M362.894 307.563H357.238V313.145H362.894V307.563Z" fill="#6A7781"/>
<path d="M408.105 315.791H419.234C420.298 315.791 421.159 316.652 421.159 317.714V329.801C421.159 333.801 417.914 337.044 413.912 337.044H413.427C409.425 337.044 406.181 333.801 406.181 329.801V317.714C406.18 316.652 407.043 315.791 408.105 315.791Z" fill="#6A7781"/>
<path d="M410.159 315.791H419.536C420.432 315.791 421.158 316.516 421.158 317.412V330.94C421.158 334.311 418.424 337.044 415.051 337.044H414.643C411.27 337.044 408.536 334.311 408.536 330.94V317.412C408.537 316.516 409.263 315.791 410.159 315.791Z" fill="#FBFEFF"/>
<path d="M411.365 315.791H417.021V310.208H411.365V315.791Z" fill="#6A7781"/>
<path d="M358.151 276.599C358.151 277.919 357.08 278.99 355.759 278.99C354.438 278.99 353.367 277.919 353.367 276.599C353.367 275.278 354.438 274.208 355.759 274.208C357.08 274.208 358.151 275.278 358.151 276.599Z" fill="#D4145A"/>
<path d="M367.072 276.598C367.072 277.35 366.462 277.959 365.71 277.959C364.958 277.959 364.348 277.35 364.348 276.598C364.348 275.846 364.958 275.237 365.71 275.237C366.462 275.237 367.072 275.846 367.072 276.598Z" fill="#46FF3B"/>
<path d="M370.969 276.598C370.969 277.35 370.36 277.959 369.608 277.959C368.856 277.959 368.246 277.35 368.246 276.598C368.246 275.846 368.856 275.237 369.608 275.237C370.36 275.237 370.969 275.846 370.969 276.598Z" fill="#D4145A"/>
<path d="M382.943 276.998C382.943 277.749 382.333 278.359 381.581 278.359C380.829 278.359 380.219 277.749 380.219 276.998C380.219 276.246 380.829 275.637 381.581 275.637C382.333 275.637 382.943 276.246 382.943 276.998Z" fill="#104E3D"/>
<path d="M386.432 276.998C386.432 277.749 385.822 278.359 385.071 278.359C384.319 278.359 383.709 277.749 383.709 276.998C383.709 276.246 384.319 275.637 385.071 275.637C385.822 275.637 386.432 276.246 386.432 276.998Z" fill="#104E3D"/>
<path d="M390.202 276.998C390.202 277.749 389.593 278.359 388.841 278.359C388.088 278.359 387.479 277.749 387.479 276.998C387.479 276.246 388.088 275.637 388.841 275.637C389.593 275.637 390.202 276.246 390.202 276.998Z" fill="#104E3D"/>
<path d="M393.972 276.998C393.972 277.749 393.363 278.359 392.611 278.359C391.859 278.359 391.249 277.749 391.249 276.998C391.249 276.246 391.859 275.637 392.611 275.637C393.363 275.637 393.972 276.246 393.972 276.998Z" fill="#104E3D"/>
<path d="M355.95 300.506L355.759 305.292C355.363 302.38 354.023 291.91 355.45 289.372C356.973 286.873 360.78 287.521 360.24 289.08C360.098 289.49 359.686 289.731 359.272 289.672C356.124 289.228 356.278 292.147 355.95 300.506Z" fill="#E2FFF4"/>
<path d="M321.534 284.051C320.907 294.784 319.074 304.912 316.274 314.046C319.716 314.042 322.591 315.736 325.834 316.321C328.702 306.056 330.52 294.799 331.045 282.939C327.874 282.985 324.705 283.191 321.534 284.051Z" fill="#2775A1"/>
<path d="M533.401 381.85H493.487L488.813 343.497H537.295L533.401 381.85Z" fill="#B471B9"/>
<path d="M503.247 343.497H488.813L493.487 381.85H533.399L534.266 373.314C519.51 369.549 507.63 358.246 503.247 343.497Z" fill="#87558B"/>
<path d="M548.552 311.968L557.123 304.268C560.824 292.572 562.663 279.486 559.808 266.602C559.808 266.602 550.336 268.427 540.192 272.778L535.574 282.444L533.373 276.09C528.543 278.755 524.016 282.045 520.784 286.04L523.399 299.205L517.188 292.147C516.689 293.446 516.326 294.804 516.119 296.22C512.948 318.032 513.407 345.067 513.407 345.067H535.229C535.229 345.067 545.531 332.57 553.159 314.861L548.552 311.968Z" fill="#598891"/>
<path d="M535.817 336.007C530.525 338.631 526.746 338.652 525.384 338.544C532.169 329.681 538.047 318.448 542.606 308.329C542.933 308.344 543.255 308.351 543.575 308.351C549.524 308.351 554.18 305.835 557.49 303.088C557.613 302.682 557.733 302.273 557.853 301.864C554.495 304.882 549.488 307.859 542.91 307.652C544.237 304.683 545.495 301.714 546.711 298.711C551.702 298.065 556.627 295.036 560.053 292.44C560.113 292.097 560.17 291.755 560.227 291.411C556.926 293.985 551.966 297.2 547.009 297.972C553.157 282.665 557.021 270.297 557.06 270.161L558.287 267.384L556.556 269.313C556.489 269.551 553.309 279.576 548.482 292.237C545.914 286.795 547.308 273.496 547.745 269.907C547.504 269.988 547.262 270.071 547.018 270.154C546.508 274.371 545.163 287.915 548.154 293.095C545.081 301.088 541.213 310.214 536.705 318.927C534.87 316.154 537.915 298.216 532.811 291.14C529.696 286.821 529.279 281.795 529.447 278.453C529.21 278.609 528.975 278.766 528.741 278.925C528.637 282.369 529.18 287.282 532.252 291.542C537.394 298.672 533.864 317.177 536.362 319.584C535.478 321.279 534.568 322.956 533.636 324.605C528.511 308.475 528.58 307.902 529.279 301.507C529.681 297.83 530.06 294.356 527.606 291.903C525.476 289.773 524.772 285.555 524.575 282.132C524.35 282.329 524.129 282.529 523.91 282.731C524.157 286.156 524.94 290.213 527.119 292.39C531.029 296.297 526.966 303.269 528.725 310.196C530.317 316.466 532.767 324.155 533.173 325.419C531.256 328.762 529.245 331.978 527.149 334.97C526.284 334.238 522.652 330.678 523.684 323.187C524.523 317.103 518.837 309.359 515.054 304.968C515.02 305.293 514.988 305.62 514.956 305.946C518.644 310.336 523.764 317.561 523.002 323.092C521.899 331.09 525.824 334.785 526.75 335.536C524.216 339.102 521.559 342.335 518.798 345.066H519.768C520.253 344.573 520.735 344.066 521.212 343.545C523.905 344.39 528.078 343.941 532.22 340.865C534.732 339 537.422 338.755 539.663 339.076C539.804 338.872 539.948 338.663 540.094 338.449C537.645 338.032 534.628 338.219 531.809 340.313C527.097 343.811 523.088 343.293 521.733 342.969C522.805 341.772 523.857 340.506 524.888 339.184C528.352 339.695 532.894 338.225 536.124 336.624C538.207 335.59 540.336 335.202 542.279 335.156C542.425 334.93 542.572 334.699 542.721 334.466C540.568 334.46 538.168 334.842 535.817 336.007Z" fill="#BDCFD3"/>
<path opacity="0.34" d="M519.82 295.137L517.188 292.147C516.689 293.446 516.326 294.804 516.119 296.22C512.948 318.032 513.407 345.067 513.407 345.067C513.407 345.067 521.935 325.251 519.82 295.137Z" fill="#43666D"/>
<path d="M441.741 327.904C442.659 327.904 454.374 321.935 474.358 327.904C494.343 333.873 508.92 345.066 508.92 345.066C508.92 345.066 486.073 349.486 465.17 346.042C444.266 342.598 441.741 327.904 441.741 327.904Z" fill="#245058"/>
<path d="M506.533 343.436C493.415 334.407 473.319 324.984 456.41 325.257C459.962 335.294 464.741 342.6 474.253 347.085C488.619 348.089 502.241 346.271 507.1 345.507C506.936 344.863 506.749 344.171 506.533 343.436Z" fill="#1B3C42"/>
<path d="M507.05 257.565L498.477 266.602L501.859 247.725C498.746 242.45 495.273 237.552 491.528 233.31C481.191 221.6 462.585 204.208 462.585 204.208C458.259 212.969 455.309 221.471 453.491 229.67L463.102 239.508L451.957 238.395C443.712 301.857 501.521 345.066 501.521 345.066H513.407C513.407 345.066 518.748 293.407 514.441 277.564C512.63 270.905 510.119 264.093 507.05 257.565Z" fill="#245058"/>
<path d="M515.464 283.346C515.347 282.317 515.212 281.346 515.059 280.443C512.554 287.346 505.921 303.966 498.716 308.324C498.47 307.631 498.219 306.939 497.962 306.248C505.14 303.59 510.937 285.776 513.786 275.251C513.542 274.423 513.288 273.594 513.024 272.765C510.038 284.288 504.007 302.63 497.476 304.964C495.415 299.596 493.008 294.369 490.222 289.779C487.935 286.008 485.596 280.821 483.3 274.856C489.498 270.119 494.239 250.001 496.352 239.33C495.995 238.841 495.635 238.358 495.271 237.881C493.34 247.837 488.542 268.551 482.785 273.504C481.132 269.113 479.505 264.338 477.938 259.425C483.203 251.529 484.946 234.81 485.493 226.773C485.062 226.322 484.628 225.87 484.19 225.415C483.752 232.419 482.222 249.327 477.391 257.694C469.663 233.062 463.194 205.948 463.102 205.53L462.584 204.575L462.591 205.612C462.695 206.081 469.886 240.417 478.964 266.91C468.723 270.324 457.503 263.106 451.44 258.21C451.49 258.852 451.546 259.49 451.608 260.126C453.131 261.308 454.909 262.575 456.878 263.78C462.716 267.355 468.303 269.167 473.362 269.167C475.479 269.167 477.502 268.85 479.414 268.212C481.907 275.376 484.498 281.895 487.063 286.917C477.839 290.133 464.427 286.557 456.964 284.016C457.163 284.581 457.365 285.143 457.572 285.702C462.993 287.497 470.911 289.59 478.355 289.59C481.651 289.59 484.855 289.179 487.708 288.15C488.154 288.98 488.599 289.763 489.042 290.493C501.039 310.264 505.949 342.115 506.383 345.068H507.775C507.656 344.227 505.144 326.964 499.177 309.65C506.176 305.65 512.414 291.359 515.464 283.346Z" fill="#E0E3F1"/>
<path opacity="0.44" d="M501.494 345.066H512.563C512.563 345.066 509.981 321.317 487.994 305.514L485.348 309.669L484.95 303.459C483.675 302.651 482.34 301.869 480.946 301.121L477.505 309.167L476.013 298.724C471.565 296.778 466.582 295.147 461 293.948C475.385 325.137 500.548 344.353 501.494 345.066Z" fill="#858AA4"/>
<path d="M549.143 303.402L546.83 313.669L544.036 306.306C541.124 308.11 538.271 310.155 535.591 312.469L534.771 317.573L532.058 315.793C524.974 323.068 519.715 332.611 518.921 345.067H537.295C537.295 345.067 576.806 334.104 578.185 293.695C578.185 293.695 563.768 295.773 549.143 303.402Z" fill="#77A1A8"/>
<path d="M525.996 345.066H529.066C550.674 333.339 574.827 297.934 575.884 296.377L577.381 294.067L574.743 295.604C574.476 295.997 547.843 335.039 525.996 345.066Z" fill="#BDCFD3"/>
<path d="M487.883 311.308L485.616 314.868L485.276 309.547C484.183 308.855 483.04 308.186 481.845 307.544L478.898 314.437L477.619 305.491C471.59 302.853 464.412 300.887 455.87 300.001C455.87 300.001 457.707 325.028 468.733 336.048C479.759 347.07 496.987 345.174 496.987 345.174H508.932C508.932 345.174 506.72 324.846 487.883 311.308Z" fill="#E0C57D"/>
<path d="M498.32 345.174H500.126C473.807 327.027 457.818 301.595 457.656 301.335L456.271 300.517L456.778 301.88C456.938 302.137 472.543 326.967 498.32 345.174Z" fill="#F3E8CB"/>
<path d="M508.919 345.066C508.919 345.066 486.871 335.205 472.241 336.423C457.612 337.641 442.546 353.926 442.546 353.926C442.546 353.926 447.344 355.648 454.256 357.36L460.77 352.181L458.949 358.439C469.744 360.723 483.573 362.255 493.022 358.246C510.643 350.768 508.919 345.066 508.919 345.066Z" fill="#AD5B45"/>
<path d="M508.919 345.066C508.912 345.064 508.636 344.939 507.769 344.572C503.392 344.301 489.29 343.559 477 344.017C474.945 342.425 474.092 338.936 473.739 336.337C473.399 336.349 473.064 336.365 472.731 336.387C473.055 338.828 473.817 342.084 475.608 344.074C475.039 344.1 471.042 344.426 469.678 344.632C467.515 343.076 467.043 339.912 467.044 337.44C466.708 337.541 466.372 337.648 466.038 337.761C466.075 340.125 466.555 343.014 468.391 344.844C467.078 345.074 465.793 345.345 464.544 345.649C461.747 345.193 460.06 342.811 459.133 340.876C458.837 341.041 458.543 341.209 458.252 341.379C459.081 343.101 460.477 345.138 462.691 346.128C461.601 346.426 460.544 346.745 459.527 347.076C455.893 346.071 454.495 344.885 453.958 344.139C453.681 344.333 453.408 344.528 453.138 344.723C453.743 345.562 455.059 346.659 457.91 347.624C450.742 350.141 445.614 352.812 445.534 352.86L443.669 353.971L446.32 353.728C446.443 353.653 458.008 346.919 471.769 345.361C468.144 348.272 466.609 354.382 465.722 357.911C465.575 358.498 465.417 359.127 465.276 359.609C465.606 359.661 465.938 359.711 466.271 359.76C466.39 359.342 466.524 358.815 466.689 358.153C467.675 354.231 469.499 346.977 474.056 345.154C474.79 345.105 478.472 344.963 479.364 344.939C475.909 347.93 473.288 356.151 472.107 360.447C472.443 360.476 472.779 360.504 473.115 360.528C474.69 354.867 477.871 345.9 481.37 344.899C494.862 344.687 508.919 345.066 508.919 345.066Z" fill="#DEBDB5"/>
<path d="M673.704 223.331H611.78V263.836H673.704V223.331Z" fill="#164A6F"/>
<path d="M705.526 137.315H581.543V239.759H705.526V137.315Z" fill="#333A50"/>
<path d="M689.148 230.202H597.922C593.123 230.202 589.232 226.314 589.232 221.517V155.556C589.232 150.76 593.123 146.87 597.922 146.87H689.148C693.947 146.87 697.837 150.759 697.837 155.556V221.516C697.837 226.314 693.947 230.202 689.148 230.202Z" fill="#E2DEF6"/>
<path d="M687.252 276.807H605.292V374.43H687.252V276.807Z" fill="#164A6F"/>
<path d="M713.546 263.836H574.215V280.074H713.546V263.836Z" fill="#96AAED"/>
<path d="M624.102 159.045H592.171V190.96H624.102V159.045Z" fill="#12207C"/>
<path d="M658.708 159.045H626.777V190.96H658.708V159.045Z" fill="#12207C"/>
<path d="M693.312 159.045H661.382V190.96H693.312V159.045Z" fill="#12207C"/>
<path d="M604.685 183.99L604.012 182.546C602.28 182.428 601.288 182.253 601.061 182.025C600.78 181.744 600.302 180.56 600.133 180.123L599.578 179.457L599.708 179.029L599.381 178.66L599.126 178.285L599.304 177.185L597.708 176.008C598.837 174.636 600.01 174.449 599.923 172.832C599.859 171.676 599.709 168.966 602.083 165.597C604.851 161.667 614.155 161.853 615.966 165.997C619.25 173.51 612.041 174.261 614.601 183.665C614.715 184.102 614.054 184.274 613.941 183.837C611.391 174.064 618.434 173.354 615.34 166.271C613.74 162.613 605.092 162.509 602.642 165.99C600.438 169.119 600.621 171.105 600.621 173.211C600.621 174.271 599.61 175.177 598.764 175.939L600.044 176.882L599.843 178.129L599.92 178.245L600.472 178.861L600.339 179.304L600.75 179.826C601.027 180.546 601.413 181.407 601.544 181.542C601.868 181.716 604.39 181.885 604.46 181.892C605.01 183.306 605.666 183.911 605.138 184.156C605.092 184.177 604.765 184.161 604.685 183.99Z" fill="#C7D0F9"/>
<path d="M605.32 164.774C605.32 164.774 604.588 165.928 603.537 166.439C602.486 166.95 600.981 169.135 601.209 170.356C601.436 171.577 602.264 171.718 603.653 171.718C605.042 171.718 604.361 170.952 605.78 172.371C607.2 173.79 608.975 171.619 609.955 172.598C610.935 173.577 609.728 176.799 609.728 176.799C609.728 176.799 614.214 174.478 615.236 171.605C616.26 168.731 615.246 165.367 612.832 164.318C610.419 163.267 606.131 164.084 605.32 164.774Z" fill="#C7D0F9"/>
<path d="M601.889 184.206H596.948V184.717H601.889V184.206Z" fill="#C7D0F9"/>
<path d="M637.936 185.029H632.995V185.54H637.936V185.029Z" fill="#C7D0F9"/>
<path d="M671.061 161.018H666.119V161.529H671.061V161.018Z" fill="#C7D0F9"/>
<path d="M617.85 184.717H613.363V185.285H617.85V184.717Z" fill="#C7D0F9"/>
<path d="M657.567 185.256H653.081V185.824H657.567V185.256Z" fill="#C7D0F9"/>
<path d="M691.888 160.99H687.401V161.558H691.888V160.99Z" fill="#C7D0F9"/>
<path d="M648.568 184.691C648.764 184.263 650.521 180.488 651.778 179.86C652.436 179.531 651.949 178.848 651.521 178.256C652.48 175.662 653.519 171.54 653.096 168.786C651.705 159.747 634.03 162.837 636.86 171.207C637.856 174.193 639.41 178.209 638.535 179.083C638.131 179.487 639.345 181.008 640.187 182.124C641.272 183.571 641.573 185.429 640.726 185.206C640.527 185.153 640.408 184.95 640.459 184.751C640.459 184.751 640.619 183.941 639.591 182.571C638.546 181.185 637.075 179.49 638.008 178.558C638.376 178.191 637.628 175.781 636.154 171.446C634.941 167.857 637.502 163.306 643.624 162.679C649.256 162.098 653.173 164.397 653.831 168.674C654.373 172.191 652.732 177.081 652.362 178.122C652.986 179.02 653.086 180.038 652.111 180.526C651.339 180.911 649.943 183.475 649.244 185.001C649.042 185.449 648.363 185.139 648.568 184.691Z" fill="#C7D0F9"/>
<path d="M645.574 163.881C645.574 163.881 643.835 163.268 642.953 163.563C642.07 163.857 642.242 164.419 642.242 164.419C642.242 164.419 640.48 164.532 639.693 165.32C638.906 166.106 639.35 166.404 639.35 166.404C639.35 166.404 638.076 168.167 637.953 168.706C637.831 169.244 638.37 170.493 638.37 170.493C638.37 170.493 637.709 171.35 638.395 173.212C639.081 175.073 642.732 175.269 643.541 174.02C644.349 172.771 643.516 171.204 643.516 171.204C643.516 171.204 644.458 171.446 644.668 171.302C645.112 170.996 645.599 170.03 644.717 169.148C643.835 168.266 646.016 168.632 646.016 168.632C646.016 168.632 644.878 170.339 645.599 171.059C646.32 171.781 647.265 170.892 647.265 171.059C647.265 171.228 646.309 171.767 646.603 173.162C646.897 174.558 649.654 175.011 651.111 173.555C652.57 172.097 652.657 167.356 651.822 165.962C650.987 164.568 649.42 164.836 649.42 164.836C649.42 164.836 646.358 162.607 645.574 163.881Z" fill="#C7D0F9"/>
<path d="M621.2 162.373H620.174V187.632H621.2V162.373Z" fill="#C7D0F9"/>
<path d="M630.25 161.274H629.225V186.533H630.25V161.274Z" fill="#C7D0F9"/>
<path d="M692.401 162.765H691.376V188.025H692.401V162.765Z" fill="#C7D0F9"/>
<path d="M675.695 167.029C675.695 167.029 673.142 165.885 672.848 166.441C672.553 166.996 672.815 166.931 671.507 167.323C670.198 167.716 667.285 171.052 667.579 172.164C667.874 173.276 667.318 172.491 666.795 174.585C666.271 176.677 667.318 177.593 666.795 179C666.271 180.406 670.066 185.115 670.885 185.279C671.703 185.442 672.291 185.868 673.437 186.424C674.582 186.98 678.116 187.176 680.439 185.77C680.439 185.77 683.548 183.578 684.071 181.551C684.594 179.523 685.412 179.981 685.412 177.103C685.412 174.224 683.58 174.78 683.58 172.719C683.58 170.659 682.599 167.977 681.224 167.29C679.85 166.604 679.719 167.945 678.574 166.8C677.429 165.655 675.695 167.029 675.695 167.029Z" fill="#C7D0F9"/>
<path d="M670.151 187.103C665.78 184.696 664.1 177.452 665.516 172.583C666.933 167.713 670.288 166.087 670.431 166.02C673.089 165.056 677.465 164.094 680.129 165.107C685.243 167.048 691.704 177.592 683.462 185.827C680.883 188.405 674.371 189.426 670.151 187.103ZM670.673 166.562C670.467 166.665 667.386 168.281 666.086 172.749C664.759 177.308 666.372 184.344 670.438 186.584C674.519 188.831 680.67 187.779 683.043 185.408C690.898 177.559 684.73 167.487 679.919 165.66C676.694 164.437 670.996 166.446 670.673 166.562Z" fill="#C7D0F9"/>
<path d="M676.251 189.751C676.11 189.751 675.995 189.637 675.995 189.496V159.614C675.995 159.473 676.109 159.358 676.251 159.358C676.393 159.358 676.508 159.473 676.508 159.614V189.496C676.508 189.637 676.393 189.751 676.251 189.751Z" fill="#C7D0F9"/>
<path d="M690.494 174.619H662.011C661.87 174.619 661.755 174.503 661.755 174.363C661.755 174.222 661.87 174.107 662.011 174.107H690.494C690.636 174.107 690.751 174.222 690.751 174.363C690.75 174.503 690.636 174.619 690.494 174.619Z" fill="#C7D0F9"/>
<path d="M690.749 149.146H596.948V154.607H690.749V149.146Z" fill="#12207C"/>
<path d="M721.97 369.424H589.232V379.891H721.97V369.424Z" fill="#12207C"/>
<path d="M687.251 201.799H617.85V203.558H687.251V201.799Z" fill="#12207C"/>
<path d="M687.055 205.917H617.653V207.676H687.055V205.917Z" fill="#12207C"/>
<path d="M687.055 209.786H617.653V211.545H687.055V209.786Z" fill="#12207C"/>
<path d="M706.364 263.836H590.821C590.821 260.396 593.611 257.608 597.052 257.608H700.132C703.574 257.608 706.364 260.396 706.364 263.836Z" fill="#333A50"/>
<path d="M556.17 149.727C556.17 149.727 554.04 154.222 553.111 159.382C552.182 164.543 553.59 173.695 556.17 177.528C558.75 181.36 559.01 182.792 561.343 182.792C563.674 182.792 573.001 178.693 573.834 169.204C574.666 159.715 556.846 149.727 556.846 149.727L556.17 149.727Z" fill="#FD5E5A"/>
<path d="M532.558 220.468C530.972 210.149 532.269 198.073 532.269 198.073C532.269 198.073 535.028 195.669 538.721 196.654C542.416 197.639 544.377 198.25 544.015 197.197C543.653 196.145 538.859 194.474 538.859 194.474C538.859 194.474 543.486 194.42 545.845 195.631C548.205 196.842 548.753 194.502 542.174 193.336C535.597 192.17 537.748 191.539 538.853 191.16C539.958 190.781 546.517 192.489 548.254 191.25C549.864 190.104 539.364 188.951 536.273 189.316C549.726 185.499 545.525 183.844 532.79 188.213C529.137 189.466 525.855 194.923 525.777 195.054C525.447 195.487 521.846 212.15 521.646 224.864C525.118 223.303 529.352 222.484 532.558 220.468Z" fill="#FD5E5A"/>
<path d="M521.099 201.799C521.784 201.799 533.717 201.613 533.717 201.613C533.717 201.613 539.018 239.273 535.035 242.191C531.051 245.109 522.418 242.834 521.099 225.475C520.135 212.809 521.099 201.799 521.099 201.799Z" fill="#CBDED6"/>
<path d="M613.867 197.444C615.204 194.424 620.789 193.637 622.581 193.062C624.374 192.489 626.025 188.904 627.22 188.523C628.415 188.14 628.051 192.146 626.244 193.188C624.437 194.229 626.752 195.802 628.157 195.816C629.561 195.83 634.666 195.446 635.837 192.802C637.007 190.159 639.179 188.584 639.475 189.508C639.771 190.433 636.775 194.447 636.775 194.447C636.775 194.447 641.617 190.027 641.967 191.119C642.316 192.21 637.899 195.384 637.899 195.384C637.899 195.384 640.877 194.014 641.741 194.525C642.604 195.036 634.664 199.938 633.096 200.44C631.529 200.942 625.329 200.61 622.264 200.296C620.979 200.163 620.335 206.479 618.146 214.729C617.024 212.719 611.574 210.973 609.995 209.319C612.621 203.684 613.338 198.638 613.867 197.444Z" fill="#FC7575"/>
<path d="M610.133 203.499L600.108 245.62C600.108 245.62 609.516 246.99 613.462 245.62C617.408 244.249 622.337 216.31 622.337 204.111L610.133 203.499Z" fill="#5D8272"/>
<path d="M572.335 364.812C572.335 364.812 572.418 365.222 572.626 365.857C573.25 367.763 574.999 371.697 578.997 372.67C584.327 373.968 588.539 372.561 589.503 373.524C590.467 374.488 590.822 377.463 590.822 377.463L558.752 378.961L560.644 365.867L572.335 364.812Z" fill="#403003"/>
<path d="M546.259 285.982L558.572 369.002L575.028 366.381L572.353 285.403L546.259 285.982Z" fill="#2D483C"/>
<path d="M556.928 361.898C556.928 361.898 552.857 365.369 552.857 369.002L538.774 379.378H533.787C533.787 379.378 544.166 366.393 546.259 363.146C548.351 359.901 548.435 356.702 548.435 356.702L556.928 361.898Z" fill="#4C3D65"/>
<path d="M601.439 284.104C596.869 270.353 584.31 276.713 584.31 276.713C576.47 278.194 564.793 305.249 563.166 313.688C561.992 319.778 550.416 347.475 544.064 362.42C548.469 360.024 554.3 361.42 556.85 365.569C570.301 343.321 602.94 288.623 601.439 284.104Z" fill="#3C6051"/>
<path d="M547.685 364.057C547.685 364.057 551.536 365.171 552.766 367.724C553.995 370.279 547.685 375.216 547.685 377.463C547.685 379.711 549.352 381.625 547.685 382.458C546.019 383.29 532.363 383.427 533.113 380.695C533.862 377.963 539.226 374.882 541.416 371.471C543.605 368.058 545.55 363.149 547.685 364.057Z" fill="#322844"/>
<path d="M586.169 281.197C586.169 281.197 606.805 275.245 600.108 289.32C598.812 292.044 539.349 296.134 539.349 291.155C539.349 286.175 543.121 281.197 543.121 281.197H586.169V281.197Z" fill="#3C6051"/>
<path d="M540.68 192.081C540.68 192.081 547.682 189.239 556.17 188.511C560.823 188.113 565.473 189.62 570.711 189.62C585.504 189.62 599.78 193.538 601.341 200.718C602.912 207.942 583.419 278.058 587.858 282.494C592.296 286.93 548.669 289.722 543.195 284.251C537.722 278.782 524.705 198.292 540.68 192.081Z" fill="#7CAD98"/>
<path d="M560.6 175.13L556.17 190.05C556.17 190.05 567.752 194.62 575.518 190.05L573.078 173.504L560.6 175.13Z" fill="#F66D75"/>
<path d="M600.947 199.516C600.947 199.516 616.552 242.532 613.462 245.62C610.372 248.708 600.108 245.62 600.108 245.62L588.832 223.629L600.947 199.516Z" fill="#7CAD98"/>
<path d="M581.187 263.836H534.289L521.405 238.183C519.09 233.574 530.154 229.395 544.668 229.395H570.809C585.322 229.395 586.423 235.584 585.688 240.549L583.726 250.699L581.187 263.836Z" fill="#0089A9"/>
<path d="M526.265 240.381C523.95 235.772 535.014 231.593 549.528 231.593H575.668C578.716 231.593 581.173 231.866 583.144 232.345C580.963 230.587 577.178 229.396 570.809 229.396H544.668C530.154 229.396 519.09 233.575 521.405 238.183L534.289 263.836H538.045L526.265 240.381Z" fill="#339CB4"/>
<path d="M568.225 305.255H560.643V378.744H568.225V305.255Z" fill="#666E9E"/>
<path d="M569.421 379.3H559.572V369.627V361.842H569.421V379.3Z" fill="#371C45"/>
<path d="M523.257 390.86L559.572 369.627V379.3L533.533 390.86V392.983H523.257V390.86Z" fill="#371C45"/>
<path d="M605.737 390.86L569.421 369.627V379.3L595.461 390.86V392.983H605.737V390.86Z" fill="#371C45"/>
<path d="M561.183 369.627V392.983H558.752V394.635H569.421V392.983H567.164L567.872 369.627H561.183Z" fill="#371C45"/>
<path d="M569.328 298.753H559.541V306.211H569.328V298.753Z" fill="#303030"/>
<path d="M606.805 298.753H522.189C522.189 293.52 526.432 289.279 531.666 289.279H597.328C602.562 289.279 606.805 293.52 606.805 298.753Z" fill="#0089A9"/>
<path d="M555.596 185.103C555.596 185.103 569.208 190.513 575.518 185.519L577.414 189.893C577.414 189.893 575.249 193.677 566.505 194.342C557.761 195.009 553.478 188.815 553.478 188.815L555.596 185.103Z" fill="#333A6A"/>
<path d="M557.429 163.919C557.429 163.919 554.306 161.547 554.306 163.295C554.306 165.043 553.956 171.227 556.879 169.508C559.802 167.79 557.429 163.919 557.429 163.919Z" fill="#F66D75"/>
<path d="M561.008 146.646C561.008 146.646 555.105 144.712 553.477 150.716C551.848 156.719 556.169 162.892 556.169 165.882C556.169 168.872 557.779 172.311 560.599 175.13C563.419 177.949 570.002 180.888 570.002 180.888C570.002 180.888 577.33 176.364 579.828 171.369C582.327 166.375 580.828 163.046 581.827 155.554C582.826 148.064 577.701 145.563 575.517 145.563C573.333 145.563 565.843 137.423 561.008 146.646Z" fill="#170053"/>
<path d="M553.11 263.836L560.225 298.753H567.21L565.843 263.836H553.11Z" fill="#303030"/>
</g>
<defs>
<filter id="filter0_i_513_725" x="0" y="0" width="721.97" height="398.635" filterUnits="userSpaceOnUse" color-interpolation-filters="sRGB">
<feFlood flood-opacity="0" result="BackgroundImageFix"/>
<feBlend mode="normal" in="SourceGraphic" in2="BackgroundImageFix" result="shape"/>
<feColorMatrix in="SourceAlpha" type="matrix" values="0 0 0 0 0 0 0 0 0 0 0 0 0 0 0 0 0 0 127 0" result="hardAlpha"/>
<feOffset dy="4"/>
<feGaussianBlur stdDeviation="14"/>
<feComposite in2="hardAlpha" operator="arithmetic" k2="-1" k3="1"/>
<feColorMatrix type="matrix" values="0 0 0 0 0 0 0 0 0 0 0 0 0 0 0 0 0 0 1 0"/>
<feBlend mode="normal" in2="shape" result="effect1_innerShadow_513_725"/>
</filter>
<linearGradient id="paint0_linear_513_725" x1="729.048" y1="422.374" x2="149.924" y2="96.2979" gradientUnits="userSpaceOnUse">
<stop stop-color="#E0CBEE"/>
<stop offset="1" stop-color="#F4DFFF"/>
</linearGradient>
<linearGradient id="paint1_linear_513_725" x1="87.4769" y1="449.295" x2="623.493" y2="128.615" gradientUnits="userSpaceOnUse">
<stop stop-color="#D8C7F5"/>
<stop offset="1" stop-color="#FBF9FF"/>
</linearGradient>
</defs>
</svg>
