<svg width="815" height="693" viewBox="0 0 815 693" fill="none" xmlns="http://www.w3.org/2000/svg">
<g filter="url(#filter0_i_517_10)">
<path d="M1006.08 473.44C973.143 614.145 863.47 671.774 812.314 683L189.626 679.886C48.847 653.419 10.4513 486.605 1.26372 427.667C-21.1952 283.595 262.004 420.036 349.968 317.127C445.221 205.691 435.009 -27.3048 577.249 2.63222C754.217 39.8784 1047.26 297.56 1006.08 473.44Z" fill="#7A439F"/>
</g>
<g filter="url(#filter1_i_517_10)">
<path d="M93.5194 417.8C5.05611 442.714 136.349 558.981 213.054 614L657.706 491.764C680.938 469.445 730.985 410.326 745.313 352.4C759.642 294.474 753.775 279.5 737 250C718.235 217 685.204 179.2 648.5 154C615 131 566 100 540 165C515.37 226.576 390.993 392.107 352.835 399.893C314.678 407.679 204.099 386.657 93.5194 417.8Z" fill="#925BB8"/>
</g>
<g filter="url(#filter2_i_517_10)">
<path d="M194.526 482.496C161.492 523.581 203.097 593.509 213.225 614L658.098 491.833C671.343 470.564 706.715 412.152 683.03 382.894C653.423 346.322 588.757 319.866 522.533 324.535C456.308 329.203 398.654 421.023 371.385 430.361C344.116 439.698 235.819 431.139 194.526 482.496Z" fill="#A075BE"/>
</g>
<g filter="url(#filter3_i_517_10)">
<path d="M530.517 679.22L207.974 677.859C208.687 614.694 222.157 519.564 274.247 500.716C335.508 478.548 402.738 482.449 450.597 427.034C504.478 364.645 655.227 364.576 655.227 475.133C655.227 576.574 675.56 580.82 631.777 647.54C613.563 675.297 559.763 680.306 530.517 679.22Z" fill="url(#paint0_linear_517_10)"/>
<path d="M215.019 679.394C215.019 679.394 215.921 558.982 276.331 540.112C336.741 521.243 406.034 524.262 455.54 474.778C505.046 425.295 648.234 422.848 648.234 511.357C648.234 599.865 670.553 605.818 626.209 655.957C603.489 681.647 530.647 680.544 530.647 680.544L215.019 679.394Z" fill="url(#paint1_linear_517_10)"/>
<path d="M529.892 679.537C542.487 634.335 545.175 589.131 537.95 543.929C534.386 521.632 517.086 504.019 494.828 500.16C448.408 492.111 421.008 490.492 360.893 497.028C344.71 554.684 301.626 621.88 317.691 679.537H529.892V679.537Z" fill="#96AAED"/>
<path d="M537.951 543.929C534.387 521.632 517.087 504.019 494.829 500.16C448.41 492.111 421.009 490.492 360.894 497.028C345.609 551.483 306.329 614.446 315.549 669.847C431.205 689.111 502.499 609.827 538.879 550.132C538.59 548.065 538.281 545.997 537.951 543.929Z" fill="#D5EAF9"/>
<path d="M455.585 445.686H367.203V503.87H455.585V445.686Z" fill="#1D6294"/>
<path d="M455.584 445.686H403.796V503.87H455.584V445.686Z" fill="#96AAED"/>
<path d="M439.399 679.394C445.764 638.684 447.73 597.974 445.296 557.263C443.056 519.813 411.126 490.875 373.376 491.912C372.97 491.923 372.564 491.936 372.157 491.95C340.164 493.045 314.227 518.226 311.92 549.945C308.78 593.095 310.585 636.245 317.332 679.394L439.399 679.394Z" fill="#8C8DC6"/>
<path d="M430.73 679.537C436.901 639.825 438.807 600.112 436.447 560.399C434.276 523.867 403.318 495.637 366.719 496.65C366.325 496.661 365.931 496.673 365.538 496.686C334.519 497.754 309.372 522.319 307.134 553.261C304.091 595.352 305.84 637.445 312.381 679.537H430.73V679.537Z" fill="#B4BBF3"/>
<path d="M368.077 674.23C392.632 674.23 412.537 640.852 412.537 599.679C412.537 558.506 392.632 525.129 368.077 525.129C343.523 525.129 323.617 558.506 323.617 599.679C323.617 640.852 343.523 674.23 368.077 674.23Z" fill="#2775A1"/>
<path d="M365.404 679.355C322.629 676.013 303.154 592.877 332.135 544.28C351.661 511.537 384.714 511.907 404.019 544.28C432.995 592.865 413.532 676.013 370.75 679.355H384.155C420.64 662.202 433.996 587.719 407.023 542.49C386.053 507.327 349.71 507.985 329.132 542.491C302.2 587.652 315.465 662.194 351.985 679.355H365.404Z" fill="#4256E1"/>
<path d="M367.204 664.29C388.186 664.29 405.195 635.363 405.195 599.679C405.195 563.996 388.186 535.069 367.204 535.069C346.221 535.069 329.212 563.996 329.212 599.679C329.212 635.363 346.221 664.29 367.204 664.29Z" fill="#1D6294"/>
<path d="M350.642 567.145C371.625 567.145 388.633 596.072 388.633 631.755C388.633 640.313 387.655 648.482 385.879 655.957C397.411 644.865 405.194 623.818 405.194 599.679C405.194 563.996 388.185 535.069 367.203 535.069C351.252 535.069 337.598 551.785 331.967 575.477C337.482 570.173 343.854 567.145 350.642 567.145Z" fill="#164A6F"/>
<path d="M329.578 608.69L405.066 605.05C405.099 604.351 405.127 603.651 405.148 602.947L329.428 606.598C329.471 607.299 329.521 607.997 329.578 608.69Z" fill="#32A4EA"/>
<path d="M381.771 679.394H191.579L182.489 629.19H392.959L381.771 679.394Z" fill="#164A6F"/>
<path d="M382.47 679.394H234.732L227.59 629.19H392.959L382.47 679.394Z" fill="#F1F9F4"/>
<path d="M234.731 679.394H382.469L392.958 629.189H361.37C325.105 645.12 272.102 666.781 234.151 675.318L234.731 679.394Z" fill="#A5C0D4"/>
<path d="M398.028 626.626H154.636V634.315H398.028V626.626Z" fill="#8FBED1"/>
<path d="M205.792 625.502H307.621L308.767 610.143C308.767 610.143 231.478 618.167 214.507 615.415C197.536 612.665 203.499 601.719 199.886 601.719C198.024 601.719 196.633 603.43 197.015 605.253L201.263 625.502H205.792V625.502Z" fill="#25265D"/>
<path d="M384.284 613.111C384.284 613.111 371.878 612.921 367.323 612.036C365.56 611.694 367.217 612.607 366.569 614.156C366.09 615.3 365.809 616.813 366.157 618.709C367.064 623.639 372.411 623.807 372.411 623.807L388.722 622.144L384.284 613.111Z" fill="#FC7575"/>
<path d="M388.722 622.144L384.284 613.111C384.284 613.111 380.982 613.068 377.368 612.838C377.257 615.195 378.547 618.156 382.438 621.3C383.017 621.767 383.59 622.202 384.158 622.609L388.722 622.144Z" fill="#FD5E5A"/>
<path d="M401.594 627.149C404.585 626.063 408.754 616.203 407.213 613.695C407.213 613.695 404.676 610.604 400.416 609.267C396.156 607.93 393.075 606.76 393.075 606.76L392.169 608.181C392.169 608.181 390.993 607.957 389.509 607.787C389.313 609.27 389.162 611.57 389.758 613.251C389.758 613.251 388.135 611.285 388.167 607.658C386.64 607.546 385.059 607.554 384.193 607.93C381.111 609.267 378.619 614.908 385.552 621.3C392.486 627.692 398.604 628.236 401.594 627.149Z" fill="#FC7575"/>
<path d="M405.676 626.981C405.219 629.406 399.964 629.157 399.964 629.157C399.964 629.157 398.873 630.573 395.071 629.572C391.264 628.57 385.374 622.671 383.559 622.671C383.559 622.671 385.914 621.219 389.632 622.387C393.345 623.554 395.522 623.554 395.522 622.304C395.522 621.047 400.51 623.305 400.51 623.305C400.51 623.305 403.042 620.466 401.957 616.369C400.871 612.273 402.544 610.897 403.41 611.691C403.41 611.691 403.315 608.099 406.489 606.759C407.781 606.214 406.126 624.557 405.676 626.981Z" fill="#0B1742"/>
<path d="M393.063 621.498C393.063 621.498 396.19 621.905 396.19 622.814C396.19 623.722 395.85 624.569 394.082 624.35C392.315 624.13 390.344 623.19 391.16 621.999C391.976 620.808 393.063 621.498 393.063 621.498Z" fill="#FC7575"/>
<path d="M406.463 630.01C406.786 629.908 407.131 629.648 407.278 629.331C407.756 628.294 406.726 626.909 406.013 625.996L406.213 625.842C406.902 626.457 407.589 627.107 408.028 628.02C408.643 629.362 408.016 630.56 406.851 631.067L406.463 630.01Z" fill="#0B1742"/>
<path d="M397.7 612.969C396.931 612.969 396.307 612.656 396.307 612.269C396.307 611.882 396.931 611.569 397.7 611.569C398.47 611.569 399.094 611.882 399.094 612.269C399.094 612.656 398.47 612.969 397.7 612.969Z" fill="#2846A6"/>
<path d="M399.948 614.708C400.79 613.428 400.482 611.627 400.479 611.61L401.015 611.528C401.03 611.609 401.361 613.526 400.413 614.968L399.948 614.708Z" fill="#2846A6"/>
<path d="M394.325 622.099C394.325 622.099 395.385 622.629 395.234 623.103C395.083 623.577 392.953 623.685 392.057 622.842C391.161 621.999 392.63 621.29 394.325 622.099Z" fill="#FD5E5A"/>
<path d="M303.437 603.444V626.367H380.955C380.955 626.367 380.037 611.237 361.689 603.444C343.342 595.65 303.437 603.444 303.437 603.444Z" fill="#F7931E"/>
<path d="M303.436 626.367V606.194C303.436 606.194 230.685 617.015 212.96 617.255C208.159 617.32 204.796 617.739 202.926 616.109C198.1 611.903 198.305 602.583 195.702 602.583C193.864 602.583 192.512 604.306 192.95 606.09L197.989 626.626L303.436 626.367Z" fill="#2775A1"/>
<path d="M307.163 623.043C300.282 624.246 294.607 623.043 290.306 623.043C286.006 623.043 279.986 627.17 279.986 627.17H341.642C341.501 623.967 341.24 620.765 341.118 617.563C325.883 619.812 310.562 622.449 307.163 623.043Z" fill="#FC7575"/>
<path d="M374.763 614.476C372.238 613.359 356.723 615.258 341.118 617.563C341.24 620.765 341.501 623.967 341.642 627.17H380.955C380.955 627.17 379.751 616.682 374.763 614.476Z" fill="#FBB03B"/>
<path d="M398.029 626.626H197.989V634.315H398.029V626.626Z" fill="#D5EAF9"/>
<path d="M518.16 508.83L518.162 508.831L518.16 508.83Z" fill="#757597"/>
<path d="M518.16 508.83C518.151 508.821 518.15 508.821 518.16 508.83Z" fill="#757597"/>
<path d="M542.891 577.911C540.895 545.806 539.183 529.27 524.279 514.125C524.212 514.062 521.437 511.469 521.316 511.357C521.318 511.358 521.319 511.359 521.321 511.361C521.255 511.309 518.347 508.98 518.162 508.831C506.675 500.494 497.766 497.999 455.584 493.601L455.584 495.592C467.441 496.875 479.777 498.794 494.384 501.32C503.713 503.126 508.883 505.858 515.542 510.19C519.166 512.733 522.447 516.07 522.377 516.003C527.998 521.818 531.95 528.524 533.965 534.28C538.441 545.597 548.213 606.862 529.121 678.542C529.05 678.542 437.721 679.466 430.729 679.537C543.457 680.674 355.392 678.99 530.647 680.543C532.326 672.74 544.988 637.291 542.891 577.911Z" fill="#757597"/>
<path d="M521.316 511.357C521.311 511.351 521.311 511.351 521.316 511.357V511.357Z" fill="#757597"/>
<path d="M476.75 595.236H422.132V606.069H476.75V595.236Z" fill="#164A6F"/>
<path d="M476.75 606.069H425.577V622.144H476.75V606.069Z" fill="#164A6F"/>
<path d="M469.044 595.236H422.132V606.069H469.044V595.236Z" fill="#C3C9F5"/>
<path d="M469.044 606.069H425.091V622.144H469.044V606.069Z" fill="#608FB2"/>
<path d="M426.899 598.031H425.091V603.623H426.899V598.031Z" fill="#CCE5F8"/>
<path d="M451.164 617.717H446.306V610.981C446.306 609.64 447.394 608.554 448.734 608.554H448.735C450.076 608.554 451.163 609.64 451.163 610.981L451.164 617.717Z" fill="#104E3D"/>
<path d="M460.696 607.904H459.269V610.35H460.696V607.904Z" fill="#104E3D"/>
<path d="M423.396 596.5H469.044V595.236H422.132V606.069H423.396V596.5Z" fill="#F3F4FD"/>
<path d="M407.513 674.928C386.874 674.536 375.259 655.298 377.931 634.226L379.318 634.402C376.711 654.964 388.145 673.536 408.057 673.536C429.784 673.536 433.16 647.104 433.802 627.147L435.2 627.192C434.476 649.7 430.082 675.405 407.513 674.928Z" fill="#353D44"/>
<path d="M389.326 656.125C380.843 649.132 380.276 634.939 380.256 634.338L381.654 634.291C381.659 634.432 382.224 648.463 390.219 655.05C393.769 657.974 398.301 659.022 403.687 658.163C424.935 654.775 413.494 600.328 421.735 594.66C429.393 589.396 476.122 587.548 477.442 596.785C478.603 604.907 477.496 637.907 477.449 639.308L476.051 639.26C476.062 638.918 477.201 604.983 476.058 596.983C475.025 589.773 430.129 590.585 422.528 595.812C419.934 597.595 419.675 606.784 419.4 616.513C418.887 634.665 418.249 657.256 403.906 659.544C398.604 660.39 393.518 659.582 389.326 656.125Z" fill="#353D44"/>
<path d="M439.751 624.453H431.084C430.257 624.453 429.586 623.782 429.586 622.955V613.544C429.586 610.428 432.113 607.904 435.229 607.904H435.606C438.723 607.904 441.249 610.429 441.249 613.544V622.955C441.249 623.782 440.578 624.453 439.751 624.453Z" fill="#6A7781"/>
<path d="M438.151 624.453H430.849C430.151 624.453 429.586 623.887 429.586 623.191V612.656C429.586 610.032 431.715 607.904 434.341 607.904H434.659C437.285 607.904 439.414 610.032 439.414 612.656V623.191C439.414 623.888 438.849 624.453 438.151 624.453Z" fill="#CCE5F8"/>
<path d="M437.212 624.453H432.808V628.8H437.212V624.453Z" fill="#6A7781"/>
<path d="M472.417 630.859H481.083C481.911 630.859 482.581 631.53 482.581 632.358V641.769C482.581 644.884 480.055 647.409 476.939 647.409H476.561C473.445 647.409 470.918 644.884 470.918 641.769V632.358C470.918 631.53 471.59 630.859 472.417 630.859Z" fill="#6A7781"/>
<path d="M474.016 630.859H481.318C482.016 630.859 482.58 631.424 482.58 632.122V642.656C482.58 645.281 480.452 647.409 477.826 647.409H477.508C474.882 647.409 472.752 645.281 472.752 642.656V632.122C472.753 631.425 473.318 630.859 474.016 630.859Z" fill="#FBFEFF"/>
<path d="M474.956 630.86H479.359V626.512H474.956V630.86Z" fill="#6A7781"/>
<path d="M433.519 600.342C433.519 601.37 432.685 602.204 431.656 602.204C430.628 602.204 429.794 601.37 429.794 600.342C429.794 599.314 430.628 598.48 431.656 598.48C432.685 598.48 433.519 599.313 433.519 600.342Z" fill="#D4145A"/>
<path d="M440.465 600.342C440.465 600.927 439.99 601.401 439.405 601.401C438.819 601.401 438.344 600.927 438.344 600.342C438.344 599.756 438.819 599.282 439.405 599.282C439.99 599.282 440.465 599.756 440.465 600.342Z" fill="#46FF3B"/>
<path d="M443.5 600.342C443.5 600.927 443.026 601.401 442.441 601.401C441.855 601.401 441.38 600.927 441.38 600.342C441.38 599.756 441.854 599.282 442.441 599.282C443.026 599.282 443.5 599.756 443.5 600.342Z" fill="#D4145A"/>
<path d="M452.823 600.653C452.823 601.238 452.348 601.712 451.763 601.712C451.178 601.712 450.703 601.238 450.703 600.653C450.703 600.067 451.177 599.593 451.763 599.593C452.349 599.593 452.823 600.067 452.823 600.653Z" fill="#104E3D"/>
<path d="M455.541 600.653C455.541 601.238 455.066 601.712 454.48 601.712C453.895 601.712 453.42 601.238 453.42 600.653C453.42 600.067 453.895 599.593 454.48 599.593C455.066 599.593 455.541 600.067 455.541 600.653Z" fill="#104E3D"/>
<path d="M458.477 600.653C458.477 601.238 458.002 601.712 457.416 601.712C456.83 601.712 456.356 601.238 456.356 600.653C456.356 600.067 456.83 599.593 457.416 599.593C458.002 599.593 458.477 600.067 458.477 600.653Z" fill="#104E3D"/>
<path d="M461.412 600.653C461.412 601.238 460.938 601.712 460.352 601.712C459.766 601.712 459.291 601.238 459.291 600.653C459.291 600.067 459.766 599.593 460.352 599.593C460.938 599.593 461.412 600.067 461.412 600.653Z" fill="#104E3D"/>
<path d="M431.805 618.958L431.656 622.685C431.348 620.417 430.305 612.264 431.416 610.288C432.602 608.343 435.566 608.847 435.145 610.061C435.035 610.38 434.715 610.568 434.392 610.522C431.941 610.176 432.061 612.449 431.805 618.958Z" fill="#E2FFF4"/>
<path d="M405.006 606.145C404.518 614.502 403.091 622.389 400.911 629.501C403.59 629.498 405.829 630.817 408.354 631.272C410.588 623.28 412.003 614.514 412.412 605.279C409.943 605.315 407.475 605.475 405.006 606.145Z" fill="#2775A1"/>
<path d="M569.981 682.298H538.901L535.262 652.434H573.013L569.981 682.298Z" fill="#B471B9"/>
<path d="M546.501 652.434H535.262L538.901 682.298H569.98L570.655 675.652C559.165 672.72 549.914 663.918 546.501 652.434Z" fill="#87558B"/>
<path d="M581.779 627.883L588.453 621.888C591.335 612.78 592.767 602.59 590.544 592.557C590.544 592.557 583.168 593.978 575.27 597.366L571.674 604.893L569.96 599.946C566.199 602.021 562.674 604.583 560.157 607.694L562.193 617.944L557.357 612.449C556.968 613.46 556.685 614.518 556.525 615.62C554.056 632.605 554.413 653.656 554.413 653.656H571.405C571.405 653.656 579.427 643.925 585.367 630.136L581.779 627.883Z" fill="#598891"/>
<path d="M571.863 646.602C567.742 648.645 564.799 648.661 563.739 648.577C569.022 641.676 573.599 632.929 577.149 625.049C577.403 625.061 577.654 625.067 577.904 625.067C582.536 625.067 586.162 623.107 588.739 620.969C588.835 620.652 588.928 620.334 589.022 620.015C586.407 622.365 582.508 624.683 577.386 624.522C578.419 622.21 579.398 619.898 580.345 617.56C584.232 617.057 588.067 614.699 590.734 612.677C590.781 612.41 590.826 612.144 590.87 611.876C588.299 613.88 584.437 616.384 580.578 616.985C585.365 605.066 588.373 595.435 588.404 595.329L589.36 593.167L588.012 594.669C587.959 594.854 585.483 602.66 581.724 612.519C579.725 608.281 580.81 597.926 581.151 595.131C580.963 595.194 580.774 595.259 580.584 595.323C580.188 598.607 579.14 609.154 581.469 613.187C579.077 619.411 576.064 626.517 572.554 633.302C571.125 631.143 573.496 617.175 569.522 611.664C567.096 608.302 566.772 604.388 566.902 601.786C566.718 601.907 566.535 602.03 566.352 602.153C566.272 604.835 566.694 608.66 569.086 611.978C573.091 617.53 570.342 631.939 572.287 633.813C571.598 635.133 570.89 636.439 570.164 637.723C566.174 625.163 566.227 624.717 566.771 619.738C567.084 616.874 567.38 614.169 565.469 612.259C563.811 610.6 563.262 607.316 563.109 604.651C562.934 604.804 562.761 604.96 562.59 605.117C562.783 607.784 563.393 610.943 565.09 612.638C568.134 615.68 564.971 621.11 566.34 626.503C567.58 631.385 569.488 637.373 569.803 638.357C568.311 640.96 566.745 643.464 565.113 645.794C564.44 645.224 561.611 642.452 562.415 636.619C563.068 631.882 558.641 625.852 555.695 622.432C555.669 622.686 555.644 622.94 555.619 623.194C558.49 626.612 562.477 632.238 561.883 636.545C561.025 642.773 564.082 645.65 564.802 646.235C562.829 649.012 560.76 651.529 558.61 653.655H559.366C559.743 653.272 560.119 652.877 560.49 652.472C562.587 653.129 565.836 652.779 569.062 650.384C571.017 648.932 573.112 648.741 574.857 648.991C574.967 648.832 575.079 648.669 575.193 648.503C573.286 648.179 570.937 648.324 568.742 649.954C565.072 652.678 561.951 652.275 560.895 652.023C561.73 651.09 562.55 650.105 563.353 649.075C566.05 649.474 569.586 648.328 572.101 647.082C573.724 646.277 575.381 645.975 576.895 645.939C577.008 645.763 577.123 645.583 577.239 645.402C575.562 645.397 573.693 645.694 571.863 646.602Z" fill="#BDCFD3"/>
<path opacity="0.34" d="M559.406 614.777L557.357 612.449C556.968 613.46 556.685 614.518 556.525 615.62C554.056 632.605 554.413 653.656 554.413 653.656C554.413 653.656 561.053 638.226 559.406 614.777Z" fill="#43666D"/>
<path d="M498.608 640.292C499.323 640.292 508.445 635.644 524.006 640.292C539.568 644.94 550.918 653.656 550.918 653.656C550.918 653.656 533.129 657.098 516.852 654.416C500.574 651.734 498.608 640.292 498.608 640.292Z" fill="#245058"/>
<path d="M549.06 652.386C538.846 645.356 523.198 638.018 510.031 638.231C512.796 646.047 516.518 651.735 523.925 655.228C535.111 656.009 545.718 654.594 549.502 653.999C549.374 653.497 549.228 652.958 549.06 652.386Z" fill="#1B3C42"/>
<path d="M549.462 585.52L542.787 592.557L545.42 577.859C542.997 573.751 540.292 569.937 537.376 566.634C529.327 557.516 514.839 543.973 514.839 543.973C511.47 550.795 509.173 557.415 507.757 563.8L515.241 571.461L506.563 570.594C500.143 620.01 545.157 653.656 545.157 653.656H554.413C554.413 653.656 558.571 613.43 555.217 601.093C553.808 595.908 551.853 590.604 549.462 585.52Z" fill="#245058"/>
<path d="M556.014 605.595C555.923 604.794 555.818 604.039 555.699 603.335C553.748 608.71 548.584 621.652 542.974 625.045C542.782 624.506 542.587 623.967 542.386 623.429C547.976 621.36 552.49 607.488 554.708 599.292C554.518 598.648 554.32 598.002 554.114 597.357C551.789 606.329 547.093 620.612 542.007 622.429C540.403 618.25 538.529 614.179 536.359 610.605C534.578 607.669 532.757 603.63 530.969 598.985C535.795 595.296 539.487 579.631 541.133 571.322C540.854 570.941 540.574 570.565 540.29 570.194C538.787 577.946 535.051 594.075 530.568 597.932C529.281 594.513 528.014 590.795 526.794 586.969C530.894 580.821 532.251 567.802 532.677 561.544C532.342 561.193 532.003 560.841 531.662 560.487C531.321 565.941 530.13 579.106 526.368 585.621C520.35 566.441 515.313 545.328 515.241 545.002L514.838 544.259L514.844 545.066C514.925 545.431 520.524 572.168 527.593 592.797C519.619 595.456 510.882 589.836 506.161 586.023C506.2 586.523 506.243 587.02 506.291 587.515C507.477 588.435 508.862 589.422 510.395 590.36C514.941 593.144 519.291 594.555 523.231 594.555C524.879 594.555 526.455 594.308 527.943 593.812C529.884 599.39 531.902 604.466 533.899 608.377C526.717 610.88 516.273 608.096 510.462 606.117C510.617 606.557 510.775 606.995 510.936 607.43C515.157 608.828 521.322 610.458 527.118 610.458C529.685 610.458 532.18 610.138 534.402 609.337C534.749 609.983 535.095 610.593 535.44 611.161C544.782 626.556 548.605 651.357 548.944 653.657H550.028C549.934 653.002 547.978 639.56 543.333 626.078C548.782 622.964 553.64 611.836 556.014 605.595Z" fill="#E0E3F1"/>
<path opacity="0.44" d="M545.136 653.656H553.755C553.755 653.656 551.745 635.163 534.624 622.857L532.564 626.093L532.253 621.257C531.261 620.628 530.222 620.019 529.136 619.437L526.457 625.702L525.295 617.571C521.832 616.055 517.951 614.785 513.605 613.851C524.806 638.138 544.4 653.1 545.136 653.656Z" fill="#858AA4"/>
<path d="M582.24 621.213L580.438 629.207L578.262 623.474C575.995 624.879 573.773 626.471 571.687 628.273L571.048 632.247L568.935 630.861C563.419 636.526 559.325 643.957 558.706 653.656H573.013C573.013 653.656 603.78 645.119 604.853 613.654C604.853 613.654 593.628 615.273 582.24 621.213Z" fill="#77A1A8"/>
<path d="M564.215 653.656H566.606C583.431 644.524 602.239 616.955 603.061 615.743L604.227 613.944L602.173 615.141C601.965 615.447 581.227 645.848 564.215 653.656Z" fill="#BDCFD3"/>
<path d="M534.538 627.369L532.773 630.141L532.508 625.998C531.657 625.459 530.766 624.938 529.836 624.438L527.541 629.806L526.546 622.84C521.851 620.785 516.262 619.255 509.61 618.565C509.61 618.565 511.041 638.052 519.627 646.633C528.212 655.216 541.627 653.74 541.627 653.74H550.928C550.928 653.74 549.206 637.911 534.538 627.369Z" fill="#E0C57D"/>
<path d="M542.665 653.74H544.071C523.577 639.609 511.127 619.806 511.001 619.604L509.923 618.967L510.317 620.028C510.442 620.228 522.593 639.562 542.665 653.74Z" fill="#F3E8CB"/>
<path d="M550.918 653.656C550.918 653.656 533.749 645.977 522.358 646.926C510.967 647.874 499.235 660.555 499.235 660.555C499.235 660.555 502.971 661.896 508.353 663.228L513.426 659.196L512.008 664.069C520.413 665.847 531.181 667.04 538.539 663.918C552.26 658.096 550.918 653.656 550.918 653.656Z" fill="#AD5B45"/>
<path d="M550.918 653.656C550.913 653.654 550.698 653.556 550.022 653.271C546.614 653.06 535.633 652.482 526.063 652.838C524.464 651.599 523.799 648.882 523.524 646.859C523.26 646.868 522.999 646.88 522.739 646.897C522.992 648.798 523.585 651.333 524.98 652.883C524.537 652.903 521.424 653.157 520.362 653.318C518.678 652.106 518.31 649.642 518.311 647.717C518.049 647.796 517.788 647.88 517.528 647.967C517.556 649.808 517.931 652.058 519.36 653.482C518.338 653.662 517.337 653.873 516.364 654.109C514.186 653.755 512.872 651.899 512.151 650.393C511.921 650.522 511.691 650.652 511.465 650.785C512.111 652.125 513.198 653.712 514.921 654.482C514.073 654.715 513.25 654.963 512.458 655.221C509.628 654.438 508.539 653.514 508.121 652.934C507.906 653.085 507.693 653.237 507.483 653.388C507.954 654.042 508.979 654.896 511.198 655.647C505.617 657.608 501.624 659.687 501.561 659.725L500.11 660.59L502.173 660.4C502.269 660.342 511.275 655.099 521.991 653.885C519.168 656.152 517.972 660.91 517.282 663.657C517.167 664.115 517.044 664.605 516.934 664.98C517.191 665.02 517.45 665.059 517.709 665.097C517.802 664.772 517.906 664.361 518.035 663.846C518.802 660.792 520.222 655.143 523.771 653.724C524.342 653.686 527.21 653.575 527.904 653.557C525.214 655.886 523.173 662.287 522.254 665.633C522.515 665.655 522.777 665.676 523.039 665.695C524.265 661.287 526.742 654.305 529.466 653.525C539.972 653.361 550.918 653.656 550.918 653.656Z" fill="#DEBDB5"/>
<path d="M679.232 558.864H631.013V590.404H679.232V558.864Z" fill="#164A6F"/>
<path d="M704.011 491.885H607.468V571.655H704.011V491.885Z" fill="#333A50"/>
<path d="M691.257 564.214H620.223C616.485 564.214 613.456 561.186 613.456 557.451V506.089C613.456 502.354 616.485 499.325 620.223 499.325H691.257C694.994 499.325 698.023 502.354 698.023 506.089V557.451C698.024 561.186 694.995 564.214 691.257 564.214Z" fill="#E2DEF6"/>
<path d="M689.781 600.504H625.96V676.521H689.781V600.504Z" fill="#164A6F"/>
<path d="M710.256 590.404H601.762V603.048H710.256V590.404Z" fill="#96AAED"/>
<path d="M640.608 508.806H615.745V533.658H640.608V508.806Z" fill="#12207C"/>
<path d="M667.554 508.806H642.691V533.658H667.554V508.806Z" fill="#12207C"/>
<path d="M694.5 508.806H669.637V533.658H694.5V508.806Z" fill="#12207C"/>
<path d="M625.488 528.23L624.964 527.105C623.616 527.014 622.843 526.877 622.666 526.699C622.447 526.481 622.075 525.559 621.944 525.219L621.512 524.701L621.613 524.367L621.358 524.08L621.16 523.788L621.299 522.931L620.055 522.015C620.934 520.946 621.848 520.801 621.781 519.542C621.731 518.641 621.614 516.531 623.462 513.908C625.618 510.847 632.862 510.992 634.272 514.219C636.83 520.07 631.216 520.654 633.21 527.977C633.298 528.317 632.784 528.451 632.696 528.11C630.71 520.501 636.195 519.948 633.785 514.432C632.539 511.584 625.806 511.503 623.897 514.214C622.181 516.65 622.324 518.197 622.324 519.836C622.324 520.662 621.536 521.368 620.878 521.961L621.875 522.695L621.718 523.666L621.778 523.756L622.208 524.236L622.104 524.581L622.424 524.987C622.64 525.548 622.941 526.219 623.043 526.324C623.295 526.459 625.259 526.591 625.313 526.596C625.741 527.697 626.252 528.168 625.841 528.359C625.805 528.376 625.551 528.363 625.488 528.23Z" fill="#C7D0F9"/>
<path d="M625.983 513.267C625.983 513.267 625.413 514.166 624.595 514.563C623.776 514.961 622.604 516.663 622.782 517.614C622.959 518.564 623.604 518.674 624.685 518.674C625.767 518.674 625.236 518.077 626.342 519.182C627.447 520.287 628.829 518.597 629.592 519.359C630.355 520.121 629.415 522.63 629.415 522.63C629.415 522.63 632.909 520.823 633.705 518.586C634.502 516.348 633.712 513.729 631.833 512.911C629.953 512.094 626.615 512.73 625.983 513.267Z" fill="#C7D0F9"/>
<path d="M623.312 528.398H619.464V528.796H623.312V528.398Z" fill="#C7D0F9"/>
<path d="M651.38 529.039H647.532V529.436H651.38V529.039Z" fill="#C7D0F9"/>
<path d="M677.174 510.342H673.326V510.74H677.174V510.342Z" fill="#C7D0F9"/>
<path d="M635.739 528.796H632.246V529.238H635.739V528.796Z" fill="#C7D0F9"/>
<path d="M666.667 529.215H663.173V529.658H666.667V529.215Z" fill="#C7D0F9"/>
<path d="M693.391 510.32H689.897V510.762H693.391V510.32Z" fill="#C7D0F9"/>
<path d="M659.659 528.776C659.811 528.442 661.179 525.503 662.158 525.014C662.671 524.758 662.292 524.226 661.958 523.765C662.705 521.745 663.514 518.535 663.184 516.391C662.102 509.352 648.338 511.759 650.543 518.276C651.318 520.601 652.528 523.729 651.846 524.409C651.532 524.724 652.477 525.908 653.132 526.777C653.977 527.903 654.212 529.35 653.552 529.176C653.397 529.136 653.305 528.977 653.345 528.822C653.345 528.822 653.47 528.192 652.669 527.125C651.855 526.046 650.709 524.726 651.436 524C651.723 523.714 651.14 521.838 649.992 518.462C649.048 515.668 651.042 512.123 655.809 511.635C660.195 511.183 663.244 512.973 663.757 516.304C664.179 519.043 662.902 522.85 662.613 523.661C663.099 524.36 663.177 525.152 662.418 525.532C661.816 525.833 660.73 527.829 660.185 529.017C660.028 529.366 659.499 529.124 659.659 528.776Z" fill="#C7D0F9"/>
<path d="M657.328 512.571C657.328 512.571 655.973 512.094 655.287 512.323C654.6 512.553 654.733 512.991 654.733 512.991C654.733 512.991 653.361 513.079 652.748 513.692C652.136 514.304 652.481 514.536 652.481 514.536C652.481 514.536 651.489 515.909 651.393 516.328C651.298 516.748 651.718 517.72 651.718 517.72C651.718 517.72 651.203 518.388 651.737 519.837C652.272 521.287 655.114 521.439 655.744 520.466C656.374 519.494 655.725 518.274 655.725 518.274C655.725 518.274 656.459 518.462 656.622 518.35C656.968 518.112 657.347 517.36 656.66 516.673C655.973 515.986 657.672 516.271 657.672 516.271C657.672 516.271 656.786 517.6 657.347 518.161C657.909 518.723 658.644 518.031 658.644 518.161C658.644 518.292 657.9 518.712 658.129 519.799C658.358 520.886 660.504 521.238 661.639 520.104C662.775 518.969 662.843 515.278 662.193 514.192C661.542 513.107 660.323 513.315 660.323 513.315C660.323 513.315 657.938 511.579 657.328 512.571Z" fill="#C7D0F9"/>
<path d="M638.348 511.397H637.549V531.066H638.348V511.397Z" fill="#C7D0F9"/>
<path d="M645.395 510.541H644.597V530.21H645.395V510.541Z" fill="#C7D0F9"/>
<path d="M693.79 511.703H692.992V531.372H693.79V511.703Z" fill="#C7D0F9"/>
<path d="M680.782 515.023C680.782 515.023 678.794 514.132 678.565 514.565C678.336 514.997 678.539 514.946 677.521 515.252C676.501 515.558 674.233 518.155 674.462 519.021C674.692 519.887 674.259 519.276 673.852 520.906C673.444 522.536 674.259 523.249 673.852 524.344C673.444 525.439 676.399 529.106 677.036 529.233C677.673 529.361 678.132 529.692 679.024 530.125C679.916 530.558 682.667 530.711 684.476 529.616C684.476 529.616 686.897 527.909 687.304 526.331C687.711 524.752 688.349 525.108 688.349 522.867C688.349 520.626 686.922 521.059 686.922 519.454C686.922 517.85 686.158 515.761 685.087 515.226C684.018 514.692 683.915 515.736 683.024 514.844C682.132 513.953 680.782 515.023 680.782 515.023Z" fill="#C7D0F9"/>
<path d="M676.465 530.654C673.062 528.78 671.754 523.139 672.856 519.348C673.96 515.556 676.572 514.289 676.683 514.237C678.753 513.486 682.16 512.737 684.235 513.526C688.217 515.037 693.248 523.248 686.83 529.66C684.822 531.668 679.751 532.463 676.465 530.654ZM676.872 514.659C676.712 514.739 674.312 515.998 673.3 519.477C672.267 523.027 673.523 528.506 676.689 530.25C679.866 531.999 684.656 531.18 686.504 529.334C692.62 523.222 687.818 515.379 684.072 513.957C681.56 513.005 677.123 514.569 676.872 514.659Z" fill="#C7D0F9"/>
<path d="M681.215 532.716C681.105 532.716 681.015 532.627 681.015 532.517V509.249C681.015 509.139 681.104 509.05 681.215 509.05C681.325 509.05 681.415 509.139 681.415 509.249V532.517C681.415 532.627 681.325 532.716 681.215 532.716Z" fill="#C7D0F9"/>
<path d="M692.306 520.933H670.126C670.017 520.933 669.927 520.843 669.927 520.734C669.927 520.624 670.017 520.534 670.126 520.534H692.306C692.416 520.534 692.505 520.624 692.505 520.734C692.505 520.843 692.416 520.933 692.306 520.933Z" fill="#C7D0F9"/>
<path d="M692.505 501.098H619.464V505.35H692.505V501.098Z" fill="#12207C"/>
<path d="M716.815 672.623H613.456V680.773H716.815V672.623Z" fill="#12207C"/>
<path d="M689.78 542.097H635.739V543.467H689.78V542.097Z" fill="#12207C"/>
<path d="M689.628 545.304H635.586V546.673H689.628V545.304Z" fill="#12207C"/>
<path d="M689.628 548.317H635.586V549.686H689.628V548.317Z" fill="#12207C"/>
<path d="M704.663 590.404H614.693C614.693 587.725 616.865 585.554 619.545 585.554H699.811C702.491 585.554 704.663 587.726 704.663 590.404Z" fill="#333A50"/>
<path d="M587.711 501.551C587.711 501.551 586.052 505.05 585.329 509.069C584.606 513.087 585.702 520.214 587.711 523.198C589.72 526.182 589.923 527.297 591.739 527.297C593.554 527.297 600.817 524.105 601.466 516.716C602.114 509.328 588.237 501.55 588.237 501.55L587.711 501.551Z" fill="#FD5E5A"/>
<path d="M569.325 556.635C568.09 548.599 569.1 539.196 569.1 539.196C569.1 539.196 571.248 537.324 574.124 538.091C577.001 538.858 578.528 539.333 578.247 538.514C577.965 537.694 574.231 536.394 574.231 536.394C574.231 536.394 577.834 536.352 579.672 537.295C581.509 538.237 581.936 536.415 576.813 535.508C571.691 534.599 573.366 534.108 574.227 533.813C575.088 533.518 580.195 534.848 581.547 533.883C582.801 532.99 574.624 532.093 572.218 532.377C582.694 529.405 579.422 528.116 569.506 531.518C566.661 532.494 564.106 536.743 564.045 536.845C563.788 537.182 560.984 550.157 560.829 560.057C563.532 558.842 566.829 558.204 569.325 556.635Z" fill="#FD5E5A"/>
<path d="M560.402 542.097C560.935 542.097 570.227 541.952 570.227 541.952C570.227 541.952 574.355 571.277 571.254 573.549C568.152 575.822 561.429 574.05 560.402 560.534C559.652 550.67 560.402 542.097 560.402 542.097Z" fill="#CBDED6"/>
<path d="M632.638 538.706C633.679 536.354 638.028 535.742 639.424 535.294C640.82 534.848 642.106 532.056 643.036 531.759C643.967 531.461 643.683 534.581 642.276 535.392C640.869 536.203 642.672 537.428 643.765 537.439C644.859 537.45 648.834 537.15 649.745 535.092C650.657 533.034 652.348 531.807 652.578 532.527C652.809 533.246 650.476 536.372 650.476 536.372C650.476 536.372 654.247 532.93 654.519 533.781C654.791 534.631 651.352 537.102 651.352 537.102C651.352 537.102 653.67 536.035 654.343 536.433C655.015 536.831 648.833 540.648 647.612 541.039C646.391 541.43 641.564 541.172 639.177 540.927C638.176 540.823 637.675 545.741 635.97 552.166C635.097 550.6 630.853 549.241 629.623 547.953C631.668 543.565 632.227 539.636 632.638 538.706Z" fill="#FC7575"/>
<path d="M629.731 543.421L621.925 576.22C621.925 576.22 629.25 577.287 632.323 576.22C635.396 575.152 639.234 553.397 639.234 543.897L629.731 543.421Z" fill="#5D8272"/>
<path d="M600.298 669.031C600.298 669.031 600.363 669.351 600.525 669.845C601.011 671.329 602.373 674.392 605.486 675.15C609.636 676.161 612.916 675.065 613.666 675.815C614.418 676.566 614.693 678.882 614.693 678.882L589.722 680.049L591.195 669.853L600.298 669.031Z" fill="#403003"/>
<path d="M579.994 607.649L589.581 672.294L602.395 670.253L600.312 607.198L579.994 607.649Z" fill="#2D483C"/>
<path d="M588.302 666.762C588.302 666.762 585.131 669.465 585.131 672.294L574.165 680.373H570.282C570.282 680.373 578.364 670.262 579.994 667.734C581.623 665.207 581.688 662.716 581.688 662.716L588.302 666.762Z" fill="#4C3D65"/>
<path d="M622.96 606.186C619.402 595.478 609.623 600.431 609.623 600.431C603.518 601.584 594.425 622.651 593.159 629.222C592.244 633.965 583.231 655.531 578.285 667.169C581.714 665.303 586.255 666.39 588.24 669.62C598.715 652.297 624.13 609.705 622.96 606.186Z" fill="#3C6051"/>
<path d="M581.104 668.443C581.104 668.443 584.103 669.311 585.06 671.299C586.018 673.288 581.104 677.132 581.104 678.882C581.104 680.633 582.402 682.123 581.104 682.772C579.807 683.419 569.173 683.526 569.757 681.399C570.34 679.271 574.517 676.873 576.223 674.216C577.927 671.558 579.442 667.736 581.104 668.443Z" fill="#322844"/>
<path d="M611.071 603.922C611.071 603.922 627.139 599.288 621.925 610.248C620.915 612.369 574.613 615.553 574.613 611.676C574.613 607.799 577.55 603.923 577.55 603.923H611.071V603.922Z" fill="#3C6051"/>
<path d="M575.65 534.53C575.65 534.53 581.102 532.317 587.712 531.75C591.335 531.44 594.955 532.614 599.034 532.614C610.553 532.614 621.669 535.665 622.885 541.255C624.108 546.881 608.93 601.478 612.386 604.932C615.841 608.386 581.87 610.561 577.608 606.301C573.346 602.042 563.21 539.366 575.65 534.53Z" fill="#7CAD98"/>
<path d="M591.161 521.331L587.711 532.949C587.711 532.949 596.73 536.507 602.777 532.949L600.877 520.064L591.161 521.331Z" fill="#F66D75"/>
<path d="M622.577 540.32C622.577 540.32 634.729 573.815 632.323 576.22C629.917 578.624 621.925 576.22 621.925 576.22L613.144 559.096L622.577 540.32Z" fill="#7CAD98"/>
<path d="M607.192 590.404H570.673L560.641 570.428C558.838 566.84 567.454 563.586 578.755 563.586H599.11C610.411 563.586 611.268 568.405 610.696 572.271L609.169 580.175L607.192 590.404Z" fill="#0089A9"/>
<path d="M564.425 572.14C562.622 568.552 571.237 565.297 582.539 565.297H602.894C605.267 565.297 607.18 565.51 608.715 565.882C607.017 564.514 604.07 563.586 599.11 563.586H578.755C567.454 563.586 558.838 566.841 560.641 570.429L570.673 590.404H573.598L564.425 572.14Z" fill="#339CB4"/>
<path d="M597.098 622.656H591.194V679.88H597.098V622.656Z" fill="#666E9E"/>
<path d="M598.029 680.313H590.36V672.78V666.718H598.029V680.313Z" fill="#371C45"/>
<path d="M562.083 689.314L590.36 672.78V680.312L570.084 689.314V690.967H562.083V689.314Z" fill="#371C45"/>
<path d="M626.308 689.314L598.029 672.78V680.312L618.306 689.314V690.967H626.308V689.314Z" fill="#371C45"/>
<path d="M591.615 672.78V690.967H589.722V692.253H598.029V690.967H596.272L596.823 672.78H591.615Z" fill="#371C45"/>
<path d="M597.957 617.593H590.335V623.4H597.957V617.593Z" fill="#303030"/>
<path d="M627.139 617.593H561.251C561.251 613.518 564.555 610.215 568.631 610.215H619.76C623.835 610.216 627.139 613.518 627.139 617.593Z" fill="#0089A9"/>
<path d="M587.265 529.097C587.265 529.097 597.863 533.309 602.777 529.42L604.253 532.826C604.253 532.826 602.568 535.773 595.759 536.291C588.95 536.81 585.615 531.987 585.615 531.987L587.265 529.097Z" fill="#333A6A"/>
<path d="M588.691 512.601C588.691 512.601 586.26 510.754 586.26 512.115C586.26 513.476 585.987 518.292 588.263 516.953C590.539 515.615 588.691 512.601 588.691 512.601Z" fill="#F66D75"/>
<path d="M591.478 499.151C591.478 499.151 586.882 497.645 585.614 502.32C584.345 506.995 587.71 511.802 587.71 514.13C587.71 516.458 588.964 519.136 591.16 521.331C593.356 523.526 598.482 525.815 598.482 525.815C598.482 525.815 604.188 522.292 606.133 518.403C608.079 514.514 606.911 511.921 607.689 506.088C608.467 500.255 604.476 498.308 602.776 498.308C601.075 498.307 595.243 491.969 591.478 499.151Z" fill="#170053"/>
<path d="M585.328 590.404L590.869 617.593H596.308L595.243 590.404H585.328Z" fill="#303030"/>
</g>
<defs>
<filter id="filter0_i_517_10" x="0" y="0" width="1010" height="687" filterUnits="userSpaceOnUse" color-interpolation-filters="sRGB">
<feFlood flood-opacity="0" result="BackgroundImageFix"/>
<feBlend mode="normal" in="SourceGraphic" in2="BackgroundImageFix" result="shape"/>
<feColorMatrix in="SourceAlpha" type="matrix" values="0 0 0 0 0 0 0 0 0 0 0 0 0 0 0 0 0 0 127 0" result="hardAlpha"/>
<feOffset dy="4"/>
<feGaussianBlur stdDeviation="22"/>
<feComposite in2="hardAlpha" operator="arithmetic" k2="-1" k3="1"/>
<feColorMatrix type="matrix" values="0 0 0 0 0 0 0 0 0 0 0 0 0 0 0 0 0 0 1 0"/>
<feBlend mode="normal" in2="shape" result="effect1_innerShadow_517_10"/>
</filter>
<filter id="filter1_i_517_10" x="64" y="126.091" width="689.413" height="491.909" filterUnits="userSpaceOnUse" color-interpolation-filters="sRGB">
<feFlood flood-opacity="0" result="BackgroundImageFix"/>
<feBlend mode="normal" in="SourceGraphic" in2="BackgroundImageFix" result="shape"/>
<feColorMatrix in="SourceAlpha" type="matrix" values="0 0 0 0 0 0 0 0 0 0 0 0 0 0 0 0 0 0 127 0" result="hardAlpha"/>
<feOffset dy="4"/>
<feGaussianBlur stdDeviation="27"/>
<feComposite in2="hardAlpha" operator="arithmetic" k2="-1" k3="1"/>
<feColorMatrix type="matrix" values="0 0 0 0 0 0 0 0 0 0 0 0 0 0 0 0 0 0 0.5 0"/>
<feBlend mode="normal" in2="shape" result="effect1_innerShadow_517_10"/>
</filter>
<filter id="filter2_i_517_10" x="182" y="324" width="509" height="294" filterUnits="userSpaceOnUse" color-interpolation-filters="sRGB">
<feFlood flood-opacity="0" result="BackgroundImageFix"/>
<feBlend mode="normal" in="SourceGraphic" in2="BackgroundImageFix" result="shape"/>
<feColorMatrix in="SourceAlpha" type="matrix" values="0 0 0 0 0 0 0 0 0 0 0 0 0 0 0 0 0 0 127 0" result="hardAlpha"/>
<feOffset dy="4"/>
<feGaussianBlur stdDeviation="17"/>
<feComposite in2="hardAlpha" operator="arithmetic" k2="-1" k3="1"/>
<feColorMatrix type="matrix" values="0 0 0 0 0 0 0 0 0 0 0 0 0 0 0 0 0 0 0.6 0"/>
<feBlend mode="normal" in2="shape" result="effect1_innerShadow_517_10"/>
</filter>
<filter id="filter3_i_517_10" x="154.636" y="384.962" width="562.179" height="311.291" filterUnits="userSpaceOnUse" color-interpolation-filters="sRGB">
<feFlood flood-opacity="0" result="BackgroundImageFix"/>
<feBlend mode="normal" in="SourceGraphic" in2="BackgroundImageFix" result="shape"/>
<feColorMatrix in="SourceAlpha" type="matrix" values="0 0 0 0 0 0 0 0 0 0 0 0 0 0 0 0 0 0 127 0" result="hardAlpha"/>
<feOffset dy="4"/>
<feGaussianBlur stdDeviation="14"/>
<feComposite in2="hardAlpha" operator="arithmetic" k2="-1" k3="1"/>
<feColorMatrix type="matrix" values="0 0 0 0 0 0 0 0 0 0 0 0 0 0 0 0 0 0 1 0"/>
<feBlend mode="normal" in2="shape" result="effect1_innerShadow_517_10"/>
</filter>
<linearGradient id="paint0_linear_517_10" x1="722.326" y1="713.853" x2="271.378" y2="459.946" gradientUnits="userSpaceOnUse">
<stop stop-color="#E0CBEE"/>
<stop offset="1" stop-color="#F4DFFF"/>
</linearGradient>
<linearGradient id="paint1_linear_517_10" x1="222.752" y1="734.816" x2="640.134" y2="485.111" gradientUnits="userSpaceOnUse">
<stop stop-color="#D8C7F5"/>
<stop offset="1" stop-color="#FBF9FF"/>
</linearGradient>
</defs>
</svg>
